<svg xmlns="http://www.w3.org/2000/svg" xmlns:xlink="http://www.w3.org/1999/xlink" width="1080" zoomAndPan="magnify" viewBox="0 0 810 708.749996" height="945" preserveAspectRatio="xMidYMid meet" version="1.0"><defs><clipPath id="9f378146d3"><path d="M 0.144531 0 L 809.855469 0 L 809.855469 708.5 L 0.144531 708.5 Z M 0.144531 0 " clip-rule="nonzero"/></clipPath><clipPath id="fce1c4df17"><path d="M 32.242188 113.125 C -33.410156 221.289062 12.84375 326.5625 70.96875 382.441406 L 410.824219 708.5 L 743.507812 383.605469 C 797.570312 323.496094 818.289062 259.738281 806.78125 188.746094 C 790.882812 90.539062 709.953125 14.34375 609.980469 3.464844 C 548.664062 -3.140625 489.433594 14.214844 443.203125 52.628906 C 430.761719 62.964844 419.640625 74.519531 409.949219 87.078125 C 398.449219 72.777344 384.964844 59.699219 369.710938 48.105469 C 316.550781 7.703125 248.882812 -8.335938 183.882812 4.136719 C 122.320312 16.03125 67.0625 55.742188 32.242188 113.125 Z M 32.242188 113.125 " clip-rule="nonzero"/></clipPath></defs><g clip-path="url(#9f378146d3)"><g clip-path="url(#fce1c4df17)"><path stroke-linecap="butt" transform="matrix(0.749736, 0, 0, 0.749736, 0.142809, 0.0000199929)" fill="none" stroke-linejoin="miter" d="M 42.81427 150.886518 C -44.75307 295.156145 16.940562 435.570247 94.467903 510.101739 L 547.768387 944.9999 L 991.502998 511.65437 C 1063.611761 431.480263 1091.246507 346.439856 1075.897344 251.750213 C 1054.691949 120.761311 946.747631 19.13172 813.403732 4.621395 C 731.619682 -4.189004 652.617863 18.959785 590.955492 70.196604 C 574.361098 83.982715 559.527742 99.3944 546.601309 116.145099 C 531.262566 97.070664 513.277057 79.627013 492.93134 64.163226 C 422.026127 10.27443 331.770339 -11.118531 245.073098 5.517544 C 162.960807 21.382514 89.257732 74.34911 42.81427 150.886518 Z M 42.81427 150.886518 " stroke="#99927f" stroke-width="4" stroke-opacity="1" stroke-miterlimit="4"/></g></g></svg>